<?xml version="1.0" standalone="no"?>
<!DOCTYPE svg PUBLIC "-//W3C//DTD SVG 20010904//EN"
 "http://www.w3.org/TR/2001/REC-SVG-20010904/DTD/svg10.dtd">
<svg version="1.0" xmlns="http://www.w3.org/2000/svg"
 width="512.000000pt" height="512.000000pt" viewBox="0 0 512.000000 512.000000"
 preserveAspectRatio="xMidYMid meet">

<g transform="translate(0.000000,512.000000) scale(0.100000,-0.100000)"
fill="#666" stroke="none">
<path d="M1356 5109 c-113 -27 -224 -121 -279 -237 l-32 -67 0 -2246 0 -2245
37 -75 c46 -93 112 -158 206 -202 l67 -32 1165 -3 c859 -2 1179 0 1220 8 127
27 235 115 293 238 l32 67 0 2245 0 2245 -32 67 c-56 119 -154 201 -277 234
-42 11 -257 14 -1206 13 -657 -1 -1172 -5 -1194 -10z m2394 -180 c55 -25 95
-62 123 -114 21 -37 22 -56 25 -282 l3 -243 -1345 0 -1346 0 0 233 c0 212 2
236 21 277 27 60 64 98 124 126 l50 24 1150 0 c1135 0 1151 -1 1195 -21z m150
-2289 l0 -1480 -25 0 -24 0 -3 283 -3 284 -28 41 c-33 51 -84 78 -163 88 -59
6 -59 7 -82 55 -36 75 -84 99 -199 99 -120 0 -129 10 -79 83 67 97 67 98 2
668 -68 599 -63 567 -92 596 -21 21 -32 23 -112 23 l-89 0 -5 88 c-8 120 -35
187 -108 266 -117 124 -275 172 -433 131 -81 -21 -132 -50 -194 -107 -91 -87
-133 -186 -133 -315 l0 -63 -99 0 c-99 0 -99 0 -125 -31 -14 -17 -26 -38 -26
-47 0 -9 -27 -247 -59 -529 -64 -556 -64 -575 -16 -659 31 -53 95 -111 154
-138 43 -20 64 -21 349 -24 l302 -3 0 -88 0 -88 -52 26 c-75 37 -171 37 -248
-1 -78 -38 -130 -88 -130 -125 0 -25 110 -235 246 -471 l25 -42 -621 0 -620 0
0 1480 0 1480 1345 0 1345 0 0 -1480z m-1214 1042 c49 -25 98 -72 121 -116 9
-17 18 -65 21 -108 l5 -78 -267 0 -266 0 0 58 c0 32 7 79 15 103 20 58 86 123
151 149 63 26 161 22 220 -8z m-554 -603 c3 -123 4 -132 27 -150 33 -27 86
-25 116 6 24 23 25 30 25 150 l0 125 265 0 265 0 0 -125 c0 -120 1 -127 25
-150 16 -17 35 -25 60 -25 25 0 44 8 60 25 24 23 25 30 25 150 l0 125 34 0
c24 0 36 -5 40 -17 2 -10 28 -227 57 -483 51 -450 52 -466 35 -500 -19 -39
-50 -66 -89 -75 l-25 -7 -4 189 c-3 172 -5 192 -26 230 -33 63 -87 95 -171
101 -111 8 -185 -30 -222 -113 -16 -34 -19 -67 -19 -227 l0 -188 -274 0 c-170
0 -285 4 -303 11 -40 15 -82 58 -92 95 -6 22 7 165 45 495 29 255 54 470 54
477 0 8 16 12 44 12 l44 0 4 -131z m742 -616 c4 -9 4 -188 1 -397 -7 -412 -7
-415 46 -445 31 -17 73 -9 97 20 13 15 18 46 22 142 l5 122 53 3 52 3 0 -155
c0 -147 1 -156 23 -180 24 -28 48 -34 89 -23 45 12 58 51 58 177 l0 110 50 0
50 0 0 -104 c0 -151 17 -186 93 -186 44 0 75 33 79 84 3 45 23 62 61 52 l27
-6 0 -298 c0 -337 -2 -348 -83 -430 -74 -75 -107 -82 -406 -82 -405 0 -376
-21 -631 438 -99 177 -180 327 -180 331 0 12 26 21 56 21 38 0 77 -24 116 -72
83 -99 105 -118 138 -118 22 0 41 9 61 29 l29 29 0 470 c0 258 3 472 7 475 3
4 23 7 44 7 25 0 39 -5 43 -17z m-299 -1528 c19 -31 35 -56 35 -58 0 -1 -30
-2 -68 -3 -156 -2 -278 -122 -289 -283 -19 -275 314 -428 512 -235 85 83 114
198 77 307 l-19 59 21 -8 c37 -13 591 -17 651 -4 123 26 261 132 309 238 18
39 22 42 58 42 l38 0 0 -317 c0 -298 -2 -321 -21 -363 -27 -60 -64 -98 -124
-126 l-50 -24 -1150 0 c-1135 0 -1151 1 -1195 21 -60 27 -98 64 -126 124 -23
49 -24 55 -24 368 l0 317 665 0 664 0 36 -55z m52 -250 c32 -22 63 -74 63
-108 0 -16 -8 -45 -17 -64 -46 -99 -198 -96 -240 4 -51 123 84 240 194 168z"/>
<path d="M2165 4721 c-28 -12 -44 -33 -51 -68 -4 -23 0 -36 21 -61 l27 -32
393 0 393 0 27 32 c31 36 29 79 -6 113 -19 19 -34 20 -402 22 -210 1 -391 -2
-402 -6z"/>
</g>
</svg>
