<?xml version="1.0" standalone="no"?>
<!DOCTYPE svg PUBLIC "-//W3C//DTD SVG 20010904//EN"
 "http://www.w3.org/TR/2001/REC-SVG-20010904/DTD/svg10.dtd">
<svg version="1.0" xmlns="http://www.w3.org/2000/svg"
 width="40.000000pt" height="80.000000pt" viewBox="0 0 40.000000 80.000000"
 preserveAspectRatio="xMidYMid meet">

<g transform="translate(0.000000,80.000000) scale(0.100000,-0.100000)"
fill="#026da6" stroke="none">
<path d="M190 601 c0 -39 -5 -73 -10 -76 -8 -5 -7 -11 1 -21 15 -18 6 -113
-12 -124 -8 -6 1 -10 27 -13 38 -4 38 -4 -8 -5 -36 -2 -48 -6 -48 -17 0 -13
11 -15 62 -13 38 2 63 8 66 16 2 6 -2 12 -8 12 -36 0 -68 111 -41 144 8 10 9
16 1 21 -5 3 -10 37 -10 76 0 39 -4 69 -10 69 -6 0 -10 -30 -10 -69z"/>
<path d="M121 311 c-23 -15 -1 -85 28 -89 23 -4 23 -4 16 -103 l-7 -99 42 0
42 0 -7 100 -7 100 25 0 c21 0 25 6 31 41 4 22 4 44 1 50 -8 11 -145 12 -164
0z"/>
</g>
</svg>
