<?xml version="1.0" standalone="no"?>
<!DOCTYPE svg PUBLIC "-//W3C//DTD SVG 20010904//EN"
 "http://www.w3.org/TR/2001/REC-SVG-20010904/DTD/svg10.dtd">
<svg version="1.0" xmlns="http://www.w3.org/2000/svg"
 width="512.000000pt" height="512.000000pt" viewBox="0 0 512.000000 512.000000"
 preserveAspectRatio="xMidYMid meet">

<g transform="translate(0.000000,512.000000) scale(0.100000,-0.100000)"
fill="#666" stroke="none">
<path d="M1392 5105 c-193 -42 -350 -183 -424 -381 -21 -56 -22 -75 -26 -448
l-3 -390 -25 -29 c-37 -44 -54 -93 -54 -156 0 -68 46 -313 65 -351 22 -43 81
-88 122 -95 63 -11 63 -11 63 -68 0 -116 54 -266 145 -403 57 -85 196 -232
271 -286 l44 -31 0 -82 c0 -72 -3 -84 -22 -102 -14 -11 -86 -36 -178 -61
l-155 -42 -310 -2 c-296 -3 -312 -4 -350 -25 -22 -11 -50 -32 -62 -45 -32 -35
-63 -108 -63 -153 0 -36 -4 -42 -43 -64 -173 -98 -300 -261 -349 -446 -16 -61
-20 -138 -29 -610 -6 -297 -8 -561 -5 -587 10 -92 65 -171 151 -216 l50 -27
1834 -3 c1227 -1 1846 1 1871 8 96 26 189 126 204 220 3 22 2 287 -4 589 -9
486 -13 558 -30 624 -48 191 -173 348 -360 453 -55 31 -70 44 -70 63 0 74 -52
156 -123 194 -40 21 -56 22 -347 27 l-305 5 -140 39 c-180 51 -185 55 -185
162 l0 82 48 35 c123 91 279 280 341 415 l24 52 244 0 c228 0 244 -1 239 -17
-23 -79 -86 -348 -86 -370 0 -34 31 -86 63 -108 43 -28 87 -29 135 -3 24 13
182 130 352 261 l308 237 306 0 c288 0 308 1 363 22 79 29 171 120 204 203
l24 60 3 554 c2 361 -1 578 -8 623 -24 159 -128 272 -282 308 -26 6 -359 10
-864 10 l-822 0 -25 53 c-74 149 -228 267 -395 302 -96 21 -1236 20 -1330 0z
m1311 -150 c79 -21 131 -49 189 -103 59 -55 94 -111 119 -193 17 -55 19 -96
19 -403 l0 -342 -47 -15 c-27 -9 -56 -19 -65 -23 -17 -8 -18 8 -18 248 0 292
-8 330 -80 405 -75 77 -103 85 -294 89 -198 4 -230 -2 -318 -64 -112 -79 -178
-81 -285 -7 -99 68 -122 73 -313 73 -166 0 -167 0 -228 -31 -69 -34 -104 -71
-138 -144 -23 -48 -24 -58 -24 -313 0 -207 -3 -263 -12 -259 -7 3 -37 14 -66
23 l-53 18 3 366 3 365 34 72 c55 118 158 204 284 238 79 21 1208 21 1290 0z
m2142 -377 c43 -23 85 -67 104 -108 14 -31 16 -105 19 -584 2 -363 -1 -566 -8
-601 -13 -61 -55 -117 -111 -145 -36 -19 -59 -20 -354 -20 -213 0 -323 -4
-337 -11 -11 -6 -158 -117 -326 -245 -168 -129 -306 -233 -308 -232 -1 2 20
94 48 205 31 126 48 212 44 227 -13 51 -41 56 -338 56 l-273 0 5 62 5 63 44 7
c53 9 107 50 133 100 22 42 68 279 68 350 0 54 -18 106 -55 154 l-25 33 0 356
0 355 818 -2 c739 -3 820 -5 847 -20z m-3004 -158 c71 -47 160 -80 219 -80 59
0 148 33 219 80 l74 50 146 0 c164 0 192 -9 231 -72 19 -31 20 -51 20 -330 0
-163 4 -308 9 -321 14 -35 51 -67 78 -67 l23 0 0 -263 c0 -281 -6 -327 -55
-434 -127 -280 -496 -553 -744 -553 -161 0 -352 97 -533 269 -97 92 -158 171
-206 267 -56 111 -62 155 -62 448 l0 266 23 0 c13 0 36 14 53 31 l29 30 5 324
5 324 30 31 c17 18 39 36 50 40 11 5 86 9 166 9 l146 1 74 -50z m-738 -667 c4
-2 7 -83 7 -179 0 -166 -1 -174 -20 -174 -27 0 -35 20 -59 145 -34 180 -27
232 32 219 18 -3 35 -8 40 -11z m1993 0 c19 -25 17 -71 -6 -198 -24 -131 -32
-150 -59 -158 -21 -5 -21 -4 -19 176 l3 181 25 7 c38 11 42 10 56 -8z m-1304
-1412 c179 -81 357 -82 534 -1 37 16 68 30 70 30 2 0 4 -21 4 -47 0 -33 8 -62
25 -92 14 -23 25 -45 25 -47 0 -2 -178 -4 -397 -4 -380 0 -395 1 -380 18 26
28 47 88 47 132 0 22 2 40 4 40 2 0 32 -13 68 -29z m1668 -324 c13 -7 28 -24
33 -37 5 -16 -12 -310 -46 -779 -53 -741 -54 -754 -76 -773 -22 -17 -75 -18
-1332 -18 -1279 0 -1309 0 -1328 19 -11 11 -22 39 -25 63 -14 108 -106 1477
-100 1492 18 47 -32 45 1454 45 1100 1 1400 -2 1420 -12z m283 -316 c51 -38
125 -129 158 -193 45 -88 48 -125 59 -701 10 -524 10 -551 -8 -585 -27 -53
-71 -72 -167 -72 l-81 0 4 41 c8 83 -53 175 -134 204 -23 8 -38 19 -35 27 1 7
25 312 51 678 27 366 49 667 49 669 1 5 47 -25 104 -68z m-3255 -578 c24 -340
47 -640 52 -668 7 -41 6 -52 -7 -60 -79 -49 -122 -119 -123 -197 l0 -48 -77 0
c-96 0 -140 19 -166 72 -18 36 -18 64 -8 590 9 464 13 562 27 608 22 73 48
124 97 189 40 52 131 131 152 131 7 0 27 -231 53 -617z m3050 -879 c26 -18 28
-50 5 -76 -15 -17 -75 -18 -1481 -18 -1350 0 -1467 1 -1484 17 -22 20 -23 51
-1 75 15 17 74 18 1477 18 1307 0 1464 -2 1484 -16z"/>
<path d="M4153 4262 c-17 -11 -343 -682 -343 -706 0 -44 53 -63 82 -28 17 20
338 677 338 692 0 14 -38 50 -52 50 -7 0 -18 -4 -25 -8z"/>
<path d="M3508 3935 c-138 -91 -156 -111 -136 -150 17 -32 256 -187 282 -183
28 4 60 51 52 76 -4 11 -45 45 -92 74 l-85 54 88 60 c99 66 110 88 69 129 -14
14 -31 25 -38 25 -7 -1 -70 -39 -140 -85z"/>
<path d="M4357 4000 c-18 -14 -27 -31 -27 -50 0 -24 11 -35 84 -82 47 -29 84
-56 83 -60 -1 -4 -38 -31 -82 -60 -74 -49 -80 -55 -80 -88 0 -27 6 -37 27 -49
22 -13 30 -13 51 -2 56 30 241 157 250 172 24 38 0 65 -128 148 -69 45 -131
84 -139 87 -7 3 -24 -5 -39 -16z"/>
<path d="M1970 1425 c-57 -18 -122 -73 -157 -132 -39 -68 -44 -172 -11 -244
83 -182 310 -227 451 -91 53 51 79 105 85 178 7 90 -18 155 -83 220 -78 78
-177 102 -285 69z m145 -149 c70 -30 96 -122 52 -187 -68 -101 -221 -67 -234
52 -12 107 82 177 182 135z"/>
</g>
</svg>
