<?xml version="1.0" standalone="no"?>
<!DOCTYPE svg PUBLIC "-//W3C//DTD SVG 20010904//EN"
 "http://www.w3.org/TR/2001/REC-SVG-20010904/DTD/svg10.dtd">
<svg version="1.0" xmlns="http://www.w3.org/2000/svg"
 width="40.000000pt" height="80.000000pt" viewBox="0 0 40.000000 80.000000"
 preserveAspectRatio="xMidYMid meet">

<g transform="translate(0.000000,80.000000) scale(0.100000,-0.100000)"
fill="#026da6" stroke="none">
<path d="M55 618 c-36 -164 -45 -250 -45 -429 l0 -189 195 0 195 0 0 189 c0
179 -9 265 -45 429 -14 61 -38 -14 -57 -180 l-11 -98 -82 0 -82 0 -11 98 c-19
166 -43 241 -57 180z m109 -349 c-35 -37 -44 -36 -44 0 0 25 5 30 28 33 42 6
46 -2 16 -33z m126 0 c0 -36 -9 -36 -43 -1 -32 33 -29 40 13 34 25 -4 30 -9
30 -33z m-38 -16 c38 -37 38 -38 38 -115 l0 -78 -85 0 -85 0 0 77 c0 75 1 78
37 115 20 21 42 38 47 38 6 0 27 -17 48 -37z m-22 -229 c0 -8 -10 -14 -25 -14
-29 0 -35 26 -7 33 22 5 32 -1 32 -19z m-60 1 c0 -9 -9 -15 -25 -15 -16 0 -25
6 -25 15 0 9 9 15 25 15 16 0 25 -6 25 -15z m120 -1 c0 -10 -7 -14 -22 -12
-32 5 -35 28 -4 28 17 0 26 -5 26 -16z"/>
</g>
</svg>
