<?xml version="1.0" standalone="no"?>
<!DOCTYPE svg PUBLIC "-//W3C//DTD SVG 20010904//EN"
 "http://www.w3.org/TR/2001/REC-SVG-20010904/DTD/svg10.dtd">
<svg version="1.0" xmlns="http://www.w3.org/2000/svg"
 width="512.000000pt" height="512.000000pt" viewBox="0 0 512.000000 512.000000"
 preserveAspectRatio="xMidYMid meet">

<g transform="translate(0.000000,512.000000) scale(0.100000,-0.100000)"
fill="#666" stroke="none">
<path d="M675 5106 c-52 -23 -73 -53 -150 -206 -58 -116 -80 -151 -97 -155
-13 -2 -88 -14 -167 -25 -157 -22 -192 -36 -228 -89 -30 -45 -38 -94 -23 -144
9 -34 37 -67 137 -163 l125 -121 -26 -155 c-14 -86 -26 -171 -26 -190 0 -52
38 -110 90 -136 71 -37 111 -28 280 62 l145 78 160 -82 c163 -82 194 -91 252
-69 43 16 92 69 104 113 9 32 6 70 -17 207 l-29 168 127 128 c138 140 156 171
138 247 -21 95 -68 120 -281 151 -88 13 -162 25 -164 27 -1 2 -37 71 -78 153
-41 83 -86 160 -98 171 -47 42 -120 54 -174 30z m134 -366 c81 -170 87 -174
286 -203 l146 -20 -110 -111 c-141 -143 -141 -143 -108 -331 14 -77 24 -141
22 -143 -2 -2 -60 27 -130 63 -169 90 -179 90 -351 1 -70 -36 -129 -64 -131
-63 -1 2 6 55 17 118 22 129 25 200 9 232 -6 12 -58 70 -116 128 l-104 106 88
12 c193 26 214 32 252 66 23 21 57 76 96 154 32 67 62 121 65 121 4 0 34 -59
69 -130z"/>
<path d="M2495 5106 c-48 -21 -86 -73 -155 -217 -36 -74 -66 -135 -67 -137 0
-2 -73 -14 -161 -27 -214 -31 -257 -53 -283 -148 -21 -78 -1 -113 139 -251
l125 -124 -27 -167 c-15 -92 -25 -181 -22 -198 10 -53 43 -97 89 -117 73 -34
101 -28 271 61 l156 80 156 -80 c170 -89 198 -95 271 -61 46 20 79 64 89 118
4 19 -5 102 -22 198 l-28 166 126 124 c102 101 128 132 138 167 20 74 -15 158
-81 192 -15 8 -104 26 -196 40 -101 14 -169 29 -172 36 -15 45 -133 270 -157
298 -48 57 -123 76 -189 47z m137 -369 c86 -169 88 -171 282 -199 l146 -22
-109 -110 c-138 -141 -139 -141 -106 -331 13 -77 22 -141 20 -143 -1 -2 -60
27 -129 64 -107 56 -135 66 -176 66 -41 0 -69 -10 -176 -66 -69 -37 -128 -66
-129 -64 -1 2 8 66 21 143 31 190 31 190 -107 331 l-109 110 146 22 c194 28
196 30 282 199 37 73 69 133 72 133 3 0 35 -60 72 -133z"/>
<path d="M4325 5108 c-54 -19 -83 -58 -156 -209 -67 -137 -75 -149 -103 -154
-17 -3 -91 -14 -164 -24 -182 -27 -231 -55 -252 -147 -18 -76 -1 -107 138
-246 l126 -128 -27 -169 c-23 -136 -26 -177 -18 -208 12 -43 61 -96 104 -112
59 -23 93 -13 253 70 l155 80 102 -52 c56 -29 127 -65 157 -81 67 -34 111 -35
170 -5 52 25 90 83 90 135 0 19 -12 104 -26 190 l-26 156 125 120 c99 96 127
129 137 163 22 73 -10 157 -76 195 -18 10 -87 26 -170 38 -76 11 -151 23 -167
26 -24 5 -38 26 -107 162 -63 125 -87 162 -115 181 -40 27 -106 36 -150 19z
m120 -359 c39 -78 73 -133 96 -154 38 -34 59 -40 252 -66 l88 -12 -104 -106
c-58 -58 -110 -116 -116 -128 -16 -32 -13 -106 9 -233 12 -62 19 -114 17 -116
-2 -2 -61 26 -131 62 -172 89 -182 89 -351 -1 -70 -36 -128 -65 -130 -63 -2 2
8 64 22 138 34 189 32 194 -104 332 -59 59 -105 109 -102 111 2 3 66 14 143
25 190 29 197 34 277 202 35 71 65 130 69 130 3 0 33 -54 65 -121z"/>
<path d="M2215 3529 c-96 -33 -190 -133 -220 -232 -20 -69 -21 -277 0 -316 29
-57 110 -64 156 -15 22 24 24 36 29 157 4 102 9 137 22 156 57 81 173 82 233
3 19 -26 20 -47 25 -779 l5 -753 27 -26 c37 -37 99 -37 136 0 l27 26 5 358 c5
329 6 359 24 385 53 78 182 78 233 0 16 -24 19 -65 23 -385 l5 -358 27 -26
c39 -40 102 -38 140 5 l28 31 0 266 c0 290 1 298 60 348 62 51 168 27 203 -47
15 -30 17 -72 17 -286 0 -287 5 -311 65 -337 45 -18 78 -10 110 28 25 29 25
33 25 199 0 195 10 235 67 270 43 27 112 28 149 4 14 -9 34 -30 45 -48 19 -31
20 -47 16 -597 -5 -699 -2 -677 -158 -1179 -44 -139 -79 -267 -79 -283 0 -40
15 -65 50 -83 79 -41 123 -4 170 145 221 710 220 704 220 1459 0 605 2 593
-87 691 -54 61 -119 96 -200 109 -64 10 -93 7 -168 -16 -31 -10 -50 -12 -52
-6 -2 6 -17 31 -33 56 -37 58 -110 112 -179 133 -68 20 -181 15 -231 -11 l-34
-18 -21 28 c-106 149 -236 197 -407 150 l-27 -7 -3 279 c-3 278 -3 278 -30
335 -32 68 -96 134 -164 167 -38 20 -67 26 -134 28 -47 1 -98 -3 -115 -8z"/>
<path d="M2044 2710 c-30 -12 -64 -58 -64 -87 0 -107 140 -141 185 -46 20 41
13 82 -18 111 -26 24 -74 34 -103 22z"/>
<path d="M2028 2309 c-37 -21 -43 -50 -48 -249 l-5 -195 -54 100 c-97 178
-194 247 -346 248 -88 0 -165 -28 -230 -85 -87 -77 -132 -183 -122 -287 6 -67
185 -813 222 -926 34 -104 92 -226 147 -312 87 -134 418 -578 441 -590 35 -19
73 -15 105 12 31 26 48 71 38 102 -3 10 -98 144 -211 298 -162 221 -218 305
-264 400 -70 141 -64 121 -186 625 -107 441 -108 454 -52 514 58 61 151 67
212 13 13 -12 89 -141 167 -287 79 -146 150 -274 158 -286 37 -51 95 -57 142
-15 l33 29 3 394 c2 216 0 408 -3 427 -12 65 -91 103 -147 70z"/>
</g>
</svg>
