<?xml version="1.0" standalone="no"?>
<!DOCTYPE svg PUBLIC "-//W3C//DTD SVG 20010904//EN"
 "http://www.w3.org/TR/2001/REC-SVG-20010904/DTD/svg10.dtd">
<svg version="1.0" xmlns="http://www.w3.org/2000/svg"
 width="40.000000pt" height="80.000000pt" viewBox="0 0 40.000000 80.000000"
 preserveAspectRatio="xMidYMid meet">

<g transform="translate(0.000000,80.000000) scale(0.100000,-0.100000)"
fill="#026da6" stroke="none">
<path d="M148 657 c-40 -9 -48 -15 -62 -46 -22 -53 -29 -100 -17 -115 8 -10 7
-25 -4 -56 -12 -35 -13 -45 -3 -51 10 -7 9 -18 -4 -56 -13 -35 -14 -49 -6 -54
9 -6 9 -14 0 -34 -25 -54 -3 -147 44 -185 15 -14 15 -15 -7 -20 -13 -3 -25
-14 -27 -23 -3 -15 11 -17 153 -17 144 0 156 1 153 18 -2 11 -14 18 -35 20
l-33 3 22 30 c26 34 27 88 4 124 -9 13 -16 38 -16 55 0 31 31 103 50 115 21
13 9 26 -19 20 -24 -5 -29 -3 -33 17 -3 13 -9 30 -12 39 -5 12 -1 18 14 22 32
8 19 31 -21 37 -21 3 -35 11 -37 22 -4 22 38 34 66 19 15 -8 23 -8 27 0 9 14
-3 59 -16 59 -6 0 -31 16 -56 35 -49 37 -52 38 -125 22z m51 -237 c13 -25 32
-56 43 -69 25 -33 16 -37 -27 -11 -76 47 -107 158 -68 246 l17 39 6 -80 c4
-55 13 -94 29 -125z m81 180 c0 -5 -4 -10 -9 -10 -6 0 -13 5 -16 10 -3 6 1 10
9 10 9 0 16 -4 16 -10z m-30 -124 c21 -29 34 -61 37 -90 7 -56 -6 -59 -29 -8
-10 20 -29 57 -43 81 -18 32 -25 58 -24 95 l1 51 13 -42 c8 -24 28 -63 45 -87z
m34 -308 c8 -14 6 -22 -11 -39 -30 -30 -53 -19 -53 26 0 33 2 36 26 33 15 -2
32 -11 38 -20z"/>
</g>
</svg>
