<?xml version="1.0" standalone="no"?>
<!DOCTYPE svg PUBLIC "-//W3C//DTD SVG 20010904//EN"
 "http://www.w3.org/TR/2001/REC-SVG-20010904/DTD/svg10.dtd">
<svg version="1.0" xmlns="http://www.w3.org/2000/svg"
 width="40.000000pt" height="80.000000pt" viewBox="0 0 40.000000 80.000000"
 preserveAspectRatio="xMidYMid meet">

<g transform="translate(0.000000,80.000000) scale(0.100000,-0.100000)"
fill="#026da6" stroke="none">
<path d="M182 705 c-12 -35 -22 -73 -22 -84 0 -22 -31 -94 -42 -99 -4 -2 -4
-111 -1 -243 6 -218 5 -239 -10 -239 -10 0 -17 -8 -17 -20 0 -19 7 -20 115
-20 108 0 115 1 115 20 0 12 -7 20 -17 20 -15 0 -16 21 -10 239 3 132 3 241
-1 243 -12 5 -42 77 -42 101 0 12 -10 50 -23 84 l-23 62 -22 -64z m78 -223
c34 -42 1 -102 -55 -102 -77 0 -93 103 -21 130 29 10 54 1 76 -28z"/>
<path d="M225 470 c-17 -19 -19 -19 -39 -3 l-21 18 19 -23 19 -22 24 22 c13
12 23 23 23 25 0 7 -8 2 -25 -17z"/>
</g>
</svg>
