<?xml version="1.0" standalone="no"?>
<!DOCTYPE svg PUBLIC "-//W3C//DTD SVG 20010904//EN"
 "http://www.w3.org/TR/2001/REC-SVG-20010904/DTD/svg10.dtd">
<svg version="1.0" xmlns="http://www.w3.org/2000/svg"
 width="40.000000pt" height="80.000000pt" viewBox="0 0 40.000000 80.000000"
 preserveAspectRatio="xMidYMid meet">

<g transform="translate(0.000000,80.000000) scale(0.100000,-0.100000)"
fill="#026da6" stroke="none">
<path d="M97 754 c-2 -14 1 -62 8 -107 7 -46 8 -89 4 -99 -6 -10 -3 -30 6 -52
12 -28 15 -83 15 -251 l0 -215 -30 0 c-16 0 -30 -4 -30 -10 0 -6 52 -10 135
-10 83 0 135 4 135 10 0 6 -18 10 -39 10 l-40 0 5 147 c2 81 8 149 12 152 10
8 52 76 52 86 0 16 -28 -17 -34 -40 -10 -39 -28 -30 -25 13 2 24 -6 55 -24 90
-15 29 -26 66 -24 82 1 16 -2 29 -7 29 -5 -1 -13 5 -17 13 -7 10 -9 10 -9 0 0
-7 7 -15 15 -18 8 -4 12 -11 8 -18 -4 -6 -8 -15 -8 -20 0 -5 -6 -11 -14 -14
-10 -3 -12 0 -8 12 4 9 2 16 -4 16 -6 0 -8 9 -4 21 5 15 4 19 -5 14 -7 -4 -9
-18 -5 -36 4 -18 2 -29 -4 -29 -6 0 -13 12 -17 28 -3 15 -10 44 -16 66 -5 21
-9 55 -7 75 3 55 0 81 -10 81 -5 0 -11 -11 -14 -26z"/>
</g>
</svg>
